<svg xmlns="http://www.w3.org/2000/svg" width="10.716" height="10" viewBox="0 0 10.716 10"><defs><style>.a{fill:#fff;}</style></defs><path class="a" d="M10.716,7.688c0,2.589-2.4,4.688-5.358,4.688a6.068,6.068,0,0,1-1.572-.2A9.78,9.78,0,0,1,.986,13,.174.174,0,0,1,.8,12.755a7.139,7.139,0,0,0,.516-1.986A4.355,4.355,0,0,1,0,7.688C0,5.1,2.4,3,5.358,3S10.716,5.1,10.716,7.688Zm-7.367,0a.67.67,0,1,0-.67.67A.67.67,0,0,0,3.349,7.688Zm2.679,0a.67.67,0,1,0-.67.67A.67.67,0,0,0,6.028,7.688Zm2.009.67a.67.67,0,1,0-.67-.67A.67.67,0,0,0,8.037,8.358Z" transform="translate(0 -3)"/></svg>