<svg xmlns="http://www.w3.org/2000/svg" width="22" height="22" viewBox="0 0 22 22"><defs><style>.a{fill:none;}.b{fill:#0075ff;}.c{fill:#fff;}</style></defs><g transform="translate(-31 -29)"><g transform="translate(-429 -742)"><rect class="a" width="22" height="22" transform="translate(460 771)"/></g><g transform="translate(37 2.171)"><g transform="translate(-10 -12)"><path class="b" d="M19.98,9.484,12.1,1.607a2,2,0,0,0-2.829,0L1.4,9.484A1.984,1.984,0,0,0,.689,11v7a3,3,0,0,0,3,3h14a3,3,0,0,0,3-3V11A1.986,1.986,0,0,0,19.98,9.484Z" transform="translate(4.311 38.807)"/><rect class="c" width="10" height="1.5" rx="0.75" transform="translate(10 52.829)"/></g></g></g></svg>