<svg xmlns="http://www.w3.org/2000/svg" width="8.571" height="10" viewBox="0 0 8.571 10"><defs><style>.a{fill:#fff;}</style></defs><g transform="translate(-6 -3)"><g transform="translate(6 3)"><path class="a" d="M6,3.357A.357.357,0,0,1,6.357,3h7.857a.357.357,0,0,1,0,.714H13.5v.714a3.215,3.215,0,0,1-1.827,2.9.5.5,0,0,0-.316.421v.5a.5.5,0,0,0,.316.421,3.214,3.214,0,0,1,1.826,2.9v.714h.714a.357.357,0,0,1,0,.714H6.357a.357.357,0,1,1,0-.714h.714v-.714A3.215,3.215,0,0,1,8.9,8.671a.5.5,0,0,0,.316-.421v-.5A.5.5,0,0,0,8.9,7.329a3.214,3.214,0,0,1-1.826-2.9V3.714H6.357A.357.357,0,0,1,6,3.357Zm1.786.357v.714A2.5,2.5,0,0,0,9.206,6.684a1.211,1.211,0,0,1,.722,1.065v.5a.651.651,0,0,0,.714,0v-.5a1.211,1.211,0,0,1,.722-1.066,2.5,2.5,0,0,0,1.421-2.256V3.714Z" transform="translate(-6 -3)"/></g></g></svg>