<svg xmlns="http://www.w3.org/2000/svg" width="22" height="22.309" viewBox="0 0 22 22.309"><defs><style>.a,.d{fill:none;}.b{fill:#b0b9cb;}.c{fill:#fff;opacity:0;}.d{stroke:#fff;stroke-linecap:round;stroke-width:1.5px;}</style></defs><g transform="translate(-310 -29)"><g transform="translate(-430 -742)"><rect class="a" width="22" height="22" transform="translate(740 771)"/></g><g transform="translate(1)"><path class="b" d="M52.349,0h6V6a6,6,0,1,1-6-6Z" transform="translate(267.651 30)"/><path class="b" d="M9.939,0c6.643,0,10.228,3.255,10.228,7.27A1.05,1.05,0,0,1,19.1,8.309H1.061A1.05,1.05,0,0,1,0,7.27C0,3.255,3.463,0,9.939,0Z" transform="translate(310 43)"/><rect class="c" width="6" height="2" rx="1" transform="translate(317 36)"/><path class="d" d="M317.263,37.183a3.854,3.854,0,0,0,2.052.9,3.4,3.4,0,0,0,1.954-.9" transform="translate(0.704)"/></g></g></svg>