<svg xmlns="http://www.w3.org/2000/svg" xmlns:xlink="http://www.w3.org/1999/xlink" width="31" height="42" viewBox="0 0 31 42"><defs><style>.a{fill:#fff;opacity:0.9;}.b{fill:#ccc;}.c{filter:url(#a);}</style><filter id="a" x="0" y="0" width="31" height="42" filterUnits="userSpaceOnUse"><feOffset dx="-2" dy="2" input="SourceAlpha"/><feGaussianBlur stdDeviation="2" result="b"/><feFlood flood-opacity="0.161"/><feComposite operator="in" in2="b"/><feComposite in="SourceGraphic"/></filter></defs><g transform="translate(-333 -296)"><g class="c" transform="matrix(1, 0, 0, 1, 333, 296)"><path class="a" d="M4,0H19a0,0,0,0,1,0,0V30a0,0,0,0,1,0,0H4a4,4,0,0,1-4-4V4A4,4,0,0,1,4,0Z" transform="translate(8 4)"/></g><path class="b" d="M2.037,7l5.591,5.566a.84.84,0,0,1-.279,1.373.846.846,0,0,1-.914-.185L.247,7.594a.837.837,0,0,1,0-1.187L6.434.246A.851.851,0,0,1,6.567.138a.843.843,0,0,1,.3-.123.849.849,0,0,1,.479.046.838.838,0,0,1,.279,1.372L2.037,7" transform="translate(347 309)"/></g></svg>