<svg xmlns="http://www.w3.org/2000/svg" width="66" height="66" viewBox="0 0 66 66"><defs><style>.a{fill:#f5f5f5;}.b{fill:#d5d5d5;}</style></defs><g transform="translate(-29 -165)"><rect class="a" width="66" height="66" rx="8" transform="translate(29 165)"/><g transform="translate(-543.88 -1955.355)"><path class="b" d="M844.719,105.015h-3.793v-4.01c0-.488-.379-.65-.867-.65h-2.547c-.488,0-.867.217-.867.65v4.01h-3.793c-.488,0-.867.217-.867.65v2.6a1.007,1.007,0,0,0,.867,1.03h3.793v3.631a1.007,1.007,0,0,0,.867,1.029h2.6c.488,0,.813-.6.813-1.029V109.3h3.793a1.053,1.053,0,0,0,.921-1.03V105.72c-.054-.542-.434-.7-.921-.7Zm0,0" transform="translate(-232.962 2030)"/><path class="b" d="M607.413,279.032h-.867V243.755c0-1.517-.217-1.517-.433-1.517h-8.887v1.517a3.588,3.588,0,0,1-3.468,3.576h-1.246v1.084a3.59,3.59,0,0,1-3.414,3.631h-2.6a3.59,3.59,0,0,1-3.414-3.631v-1.084h-1.3a3.578,3.578,0,0,1-3.414-3.576v-1.517h-8.887c-.217,0-.434,0-.434,1.517v35.277h-.867a1.3,1.3,0,1,0,0,2.6h39.232a1.3,1.3,0,1,0,0-2.6ZM575.6,254.864c0-.217.217-.217.433-.217h9.375c.217,0,.434-.054.434.217v4.064H575.6ZM585.9,274.1c0,.217-.217.65-.433.65h-9.375c-.217,0-.433-.379-.433-.65V261.475H585.9Zm3.847-19.237c0-.217.163-.217.379-.217H599.5c.217,0,.488-.054.488.217v4.064H589.748ZM599.989,274.1c0,.217-.271.65-.488.65h-9.375c-.217,0-.379-.379-.379-.65V261.475h10.242Zm0,0" transform="translate(18 1895.686)"/></g></g></svg>